<svg width="100" height="100" viewBox="0 0 100 100" fill="none" xmlns="http://www.w3.org/2000/svg">
<path fill-rule="evenodd" clip-rule="evenodd" d="M50 87.5C70.7107 87.5 87.5 70.7107 87.5 50C87.5 29.2893 70.7107 12.5 50 12.5C29.2893 12.5 12.5 29.2893 12.5 50C12.5 70.7107 29.2893 87.5 50 87.5ZM67.4349 38.1402C67.7885 37.7159 67.7311 37.0853 67.3069 36.7318C66.8826 36.3782 66.252 36.4355 65.8984 36.8598L46.4672 60.1774C46.1204 60.5934 45.9255 60.8238 45.7699 60.9653L45.764 60.9707L45.7576 60.9659C45.5898 60.839 45.3748 60.6272 44.9918 60.2443L34.0404 49.2929C33.6499 48.9024 33.0168 48.9024 32.6262 49.2929C32.2357 49.6834 32.2357 50.3166 32.6262 50.7071L43.5776 61.6585L43.6184 61.6993C43.9449 62.026 44.259 62.3402 44.5513 62.5611C44.8786 62.8087 45.3074 63.0415 45.8568 63.0165C46.4062 62.9916 46.8121 62.721 47.1157 62.4448C47.3867 62.1983 47.6711 61.8569 47.9667 61.5021L48.0036 61.4577L67.4349 38.1402Z" fill="#0DEBFC"/>
</svg>
