<svg width="100" height="100" viewBox="0 0 100 100" fill="none" xmlns="http://www.w3.org/2000/svg">
<path d="M12.5 16.5C12.5 14.6144 12.5 13.6716 13.0858 13.0858C13.6716 12.5 14.6144 12.5 16.5 12.5H83.5C85.3856 12.5 86.3284 12.5 86.9142 13.0858C87.5 13.6716 87.5 14.6144 87.5 16.5V83.5C87.5 85.3856 87.5 86.3284 86.9142 86.9142C86.3284 87.5 85.3856 87.5 83.5 87.5H16.5C14.6144 87.5 13.6716 87.5 13.0858 86.9142C12.5 86.3284 12.5 85.3856 12.5 83.5V16.5Z" stroke="#0DEBFC" stroke-width="2"/>
<path fill-rule="evenodd" clip-rule="evenodd" d="M83.5 41.6666H47.4902C46.6727 41.6666 46.2639 41.6666 45.8964 41.5144C45.5289 41.3621 45.2398 41.0731 44.6618 40.4951L34.5049 30.3382C33.9268 29.7601 33.6378 29.4711 33.2703 29.3189C32.9027 29.1666 32.494 29.1666 31.6765 29.1666H12.5V83.5C12.5 85.3856 12.5 86.3284 13.0858 86.9142C13.6716 87.5 14.6144 87.5 16.5 87.5H83.5C85.3856 87.5 86.3284 87.5 86.9142 86.9142C87.5 86.3284 87.5 85.3856 87.5 83.5V37.6666C87.5 39.5522 87.5 40.4951 86.9142 41.0808C86.3284 41.6666 85.3856 41.6666 83.5 41.6666ZM29.1667 65.6666C28.6144 65.6666 28.1667 66.1143 28.1667 66.6666C28.1667 67.2189 28.6144 67.6666 29.1667 67.6666H62.5C63.0523 67.6666 63.5 67.2189 63.5 66.6666C63.5 66.1143 63.0523 65.6666 62.5 65.6666H29.1667Z" fill="#0DEBFC"/>
</svg>
